******************************************************

Cliffhanger 1993 1080p x264-alrmothe

******************************************************

Title : Action | Adventure | Thriller 
YEAR: 1993
GENRE :   Adventure | Family | Fantasy       
imdb URL http://www.imdb.com/title/tt0106582/
Overall bit rate: 8540 kbps
Format version: Version 4 / Version 2
File size:  6.72 GiB
Duration:  1h 52mn
Sub:English, English SDH, French
sample:Yes
******************************************************

Video
Format: Matroska
Format : AVC 
Format/Info : Advanced Video Codec 
Format profile : High@L4.1 
Format settings, CABAC : Yes 
Format settings, ReFrames : 4 frames  
Codec ID : V_MPEG4/ISO/AVC  
Bit rate : 9000 kbps 
Width : 1920 pixels 
Height : 798 pixels 
Display aspect ratio : 2:40:1 
Frame rate : 23.976 fps 
Color space : YUV 
Chroma subsampling : 4:2:0 
Bit depth : 8 bits 
Scan type : Progressive 
Bits/(Pixel*Frame) : 0.215 
Stream size: 6.09 GiB 


Audio 
Format: Ac3
Bit rate :640 Kbps
Channel(s) : 6 channels
Channel positions:Front: L C R, Side: L R, LFE
Sampling rate: 48.0 KHz
Bit depth: 16 bits
Compression mode: Lossy
Stream size: 516 GiB
Language : English

******************************************************

Screenshots 
http://img521.imageshack.us/img521/4052/vlcsnap2013060115h13m59.png 
http://img690.imageshack.us/img690/1492/vlcsnap2013060115h14m08.png 
http://img198.imageshack.us/img198/1443/vlcsnap2013060115h16m13.png




[c]Use KMPlayer for the best quality]




[code]http://p2pdl.com:2710/announce 
http://exodus.desync.com:6969/announce
udp://tracker.openbittorrent.com:80/announce
udp://tracker.istole.it:80/announce
udp://tracker.publicbt.com:80/announce
udp://10.rarbg.me:80/announce 
http://bt.poletracker.org:2710/announce
udp://ipv4.tracker.harry.lu:80/announce 
http://94.228.192.98/announce 
http://announce.opensharing.org:2710/announce
udp://tracker.beeimg.com:6969/announce
[/code]



.